<?xml version="1.0" standalone="no"?>
<!DOCTYPE svg PUBLIC "-//W3C//DTD SVG 20010904//EN"
 "http://www.w3.org/TR/2001/REC-SVG-20010904/DTD/svg10.dtd">
<svg version="1.0" xmlns="http://www.w3.org/2000/svg"
 width="824.000000pt" height="824.000000pt" viewBox="0 0 824.000000 824.000000"
 preserveAspectRatio="xMidYMid meet">
<metadata>
Created by potrace 1.11, written by Peter Selinger 2001-2013
</metadata>
<g transform="translate(0.000000,824.000000) scale(0.100000,-0.100000)"
fill="#000000" stroke="none">
<path d="M4102 8155 c-7 -8 -9 -15 -5 -15 4 0 3 -4 -2 -8 -6 -4 -51 -70 -99
-147 -133 -211 -155 -245 -197 -308 -22 -32 -39 -60 -39 -63 0 -3 -15 -26 -32
-52 -43 -62 -56 -83 -64 -104 -3 -10 -11 -18 -17 -18 -6 0 -8 -3 -4 -6 3 -3
-4 -16 -15 -29 -11 -13 -26 -33 -32 -44 -6 -10 -27 -45 -46 -76 -19 -31 -40
-64 -45 -73 -6 -10 -32 -51 -59 -92 -27 -41 -62 -95 -77 -120 -45 -70 -46 -72
-83 -127 -19 -29 -32 -53 -28 -53 4 0 2 -4 -3 -8 -6 -4 -30 -38 -55 -77 -25
-38 -49 -73 -55 -77 -5 -4 -6 -8 -2 -8 4 0 -3 -15 -17 -33 -15 -19 -26 -39
-26 -45 0 -6 -6 -15 -13 -19 -7 -4 -21 -25 -32 -45 -11 -21 -23 -38 -28 -38
-4 0 -5 -5 -2 -10 3 -6 -1 -13 -9 -16 -9 -3 -16 -10 -16 -15 0 -9 -139 -232
-158 -255 -5 -5 -15 -21 -22 -35 -7 -13 -41 -67 -75 -119 -111 -172 -559 -878
-592 -932 -17 -29 -35 -57 -40 -63 -16 -20 -63 -95 -63 -100 0 -4 -11 -21 -25
-39 -14 -18 -25 -38 -25 -44 0 -6 -4 -12 -9 -14 -5 -1 -37 -49 -72 -105 -105
-168 -263 -417 -271 -428 -14 -18 -448 -699 -455 -715 -4 -8 -12 -20 -17 -27
-6 -6 -33 -48 -61 -93 -53 -85 -128 -205 -145 -230 -9 -13 -78 -122 -117 -185
-95 -152 -179 -281 -185 -283 -4 -2 -8 -8 -8 -12 0 -11 -123 -204 -132 -208
-5 -2 -8 -8 -8 -13 0 -9 -84 -144 -141 -226 -16 -23 -29 -45 -29 -49 0 -4 -11
-22 -25 -40 -14 -18 -25 -35 -25 -37 0 -2 -19 -33 -43 -69 -23 -35 -71 -110
-107 -167 -36 -56 -83 -131 -106 -166 -33 -51 -38 -64 -25 -67 9 -2 470 -3
1026 -3 l1010 1 50 -37 c28 -21 64 -50 80 -63 17 -14 35 -29 40 -33 70 -56
113 -90 126 -103 9 -8 29 -24 43 -34 15 -11 37 -28 49 -39 12 -11 49 -40 82
-65 33 -25 62 -49 65 -52 3 -3 39 -32 80 -65 41 -33 80 -64 87 -70 7 -5 18
-15 25 -20 93 -74 115 -92 129 -105 27 -25 59 -50 64 -50 3 0 13 -8 23 -18 10
-9 32 -27 48 -40 17 -12 44 -33 60 -46 16 -14 94 -77 174 -140 80 -64 160
-130 178 -146 19 -17 36 -30 38 -30 4 0 162 -127 174 -140 3 -3 29 -23 57 -45
29 -21 53 -43 53 -47 0 -4 6 -8 14 -8 8 0 16 -4 18 -8 2 -6 79 -69 172 -142
10 -8 27 -23 38 -33 10 -9 20 -17 22 -17 3 0 19 -13 37 -30 32 -29 34 -29 59
-13 14 9 31 23 38 30 8 7 30 26 50 41 21 15 39 29 42 33 3 3 30 25 60 48 30
24 71 56 90 72 19 16 67 54 105 85 39 30 90 72 114 92 24 20 51 41 60 46 9 5
18 12 21 16 3 4 68 57 145 118 77 61 147 117 155 125 8 7 49 40 90 73 41 32
77 61 80 64 3 3 34 28 69 55 36 28 72 57 81 65 9 8 31 26 48 40 18 14 42 33
54 44 13 10 39 30 58 45 19 14 37 28 40 31 6 6 153 124 206 165 21 17 65 53
99 80 33 28 83 68 110 90 28 22 52 43 53 47 2 5 10 8 18 8 8 0 14 4 14 8 0 5
18 21 40 38 22 16 53 40 69 54 l29 25 1019 -1 c560 0 1023 2 1030 4 9 3 7 12
-6 30 -47 66 -151 234 -151 242 0 6 -4 10 -10 10 -5 0 -10 5 -10 10 0 6 -5 16
-10 23 -6 7 -41 60 -78 118 -114 179 -246 388 -257 406 -5 9 -14 22 -18 27
-26 35 -197 310 -197 317 0 5 -4 9 -9 9 -5 0 -14 14 -21 30 -7 17 -16 30 -21
30 -5 0 -9 5 -9 10 0 9 -40 73 -147 236 -18 28 -33 56 -33 62 0 6 -4 12 -9 14
-5 2 -17 17 -27 35 -11 17 -73 116 -139 220 -66 103 -121 194 -123 200 -2 7
-8 13 -13 13 -5 0 -9 7 -9 15 0 8 -4 15 -8 15 -5 0 -16 15 -25 33 -10 17 -26
46 -37 62 -11 17 -23 38 -26 48 -4 9 -10 17 -14 17 -4 0 -18 20 -31 45 -13 25
-27 45 -31 45 -5 0 -8 6 -8 13 0 6 -14 30 -30 51 -17 22 -30 46 -30 53 0 7 -3
13 -8 13 -4 0 -16 17 -27 37 -11 20 -24 42 -30 48 -12 13 -22 29 -67 105 -18
30 -36 60 -41 65 -19 23 -127 197 -127 205 0 4 -4 10 -8 12 -8 3 -216 326
-244 379 -9 18 -21 35 -25 38 -11 8 -32 43 -39 64 -4 9 -10 17 -14 17 -4 0
-10 8 -14 18 -3 9 -14 29 -23 44 -10 14 -47 72 -83 128 -36 56 -82 127 -102
158 -20 31 -45 71 -54 89 -8 18 -22 37 -30 44 -8 6 -14 18 -14 25 0 8 -4 14
-10 14 -5 0 -12 11 -16 25 -3 14 -10 25 -14 25 -4 0 -18 20 -31 45 -13 25 -27
45 -31 45 -5 0 -8 5 -8 10 0 6 -33 61 -73 123 -40 61 -91 141 -113 177 -21 36
-43 70 -49 76 -5 6 -19 27 -30 47 -11 20 -23 37 -27 37 -5 0 -8 4 -8 10 0 5
-21 42 -47 82 -27 40 -52 81 -58 90 -29 50 -141 225 -152 236 -6 6 -15 21 -18
32 -3 11 -11 20 -16 20 -5 0 -9 5 -9 11 0 6 -18 38 -40 71 -22 33 -40 64 -40
69 0 5 -4 9 -9 9 -5 0 -11 6 -13 13 -3 12 -58 101 -143 231 -22 33 -81 125
-130 204 -50 78 -111 175 -137 215 -26 40 -56 88 -68 107 -26 45 -38 64 -77
122 -18 26 -33 50 -33 53 0 3 -5 11 -10 18 -20 23 -80 119 -80 128 0 5 -4 9
-10 9 -5 0 -10 4 -10 10 0 12 -103 170 -110 170 -3 -1 -11 -7 -18 -15z"/>
</g>
</svg>
